<svg xmlns="http://www.w3.org/2000/svg" xmlns:xlink="http://www.w3.org/1999/xlink" viewBox="0 0 1208.75 1202.09"><defs><style>.cls-1{fill:url(#linear-gradient);}.cls-2{fill:url(#linear-gradient-2);}.cls-3{fill:url(#linear-gradient-3);}.cls-4{fill:url(#linear-gradient-4);}.cls-5{fill:url(#linear-gradient-5);}.cls-6{fill:url(#linear-gradient-6);}.cls-7{fill:url(#linear-gradient-7);}.cls-8{fill:url(#linear-gradient-8);}.cls-9{fill:url(#linear-gradient-9);}.cls-10{fill:url(#linear-gradient-10);}.cls-11{fill:url(#linear-gradient-11);}.cls-12{fill:url(#linear-gradient-12);}.cls-13{fill:#ff0;}.cls-14{fill:url(#linear-gradient-13);}.cls-15{fill:url(#linear-gradient-14);}.cls-16{fill:url(#linear-gradient-15);}.cls-17{fill:url(#linear-gradient-16);}.cls-18{fill:url(#linear-gradient-17);}.cls-19{fill:url(#linear-gradient-18);}.cls-20{fill:url(#linear-gradient-19);}.cls-21{fill:url(#linear-gradient-20);}.cls-22{fill:url(#linear-gradient-21);}.cls-23{fill:url(#linear-gradient-22);}</style><linearGradient id="linear-gradient" x1="177.41" y1="1185.28" x2="906.16" y2="50.95" gradientUnits="userSpaceOnUse"><stop offset="0.18" stop-color="#feedb4"/><stop offset="0.96" stop-color="#3f287d"/></linearGradient><linearGradient id="linear-gradient-2" x1="470.7" y1="859.66" x2="969.57" y2="289.86" gradientUnits="userSpaceOnUse"><stop offset="0.21" stop-color="#feedb4"/><stop offset="0.98" stop-color="#3f287d"/></linearGradient><linearGradient id="linear-gradient-3" x1="209.89" y1="726.16" x2="1148.13" y2="231.87" gradientUnits="userSpaceOnUse"><stop offset="0.15" stop-color="#feedb4"/><stop offset="0.87" stop-color="#3f287d"/></linearGradient><linearGradient id="linear-gradient-4" x1="439.28" y1="1008.55" x2="983.92" y2="495.95" gradientUnits="userSpaceOnUse"><stop offset="0.05" stop-color="#feedb4"/><stop offset="1" stop-color="#3f287d"/></linearGradient><linearGradient id="linear-gradient-5" x1="1122.59" y1="-68.23" x2="573" y2="1079.76" xlink:href="#linear-gradient-4"/><linearGradient id="linear-gradient-6" x1="222.52" y1="808.59" x2="1082.95" y2="504.23" xlink:href="#linear-gradient-4"/><linearGradient id="linear-gradient-7" x1="-176.95" y1="649.37" x2="1031.32" y2="79.56" gradientUnits="userSpaceOnUse"><stop offset="0.39" stop-color="#feedb4"/><stop offset="0.84" stop-color="#3f287d"/></linearGradient><linearGradient id="linear-gradient-8" x1="185.14" y1="525.99" x2="821.31" y2="283.43" xlink:href="#linear-gradient-4"/><linearGradient id="linear-gradient-9" x1="-148.6" y1="460.07" x2="1206.12" y2="135.12" gradientUnits="userSpaceOnUse"><stop offset="0.2" stop-color="#feedb4"/><stop offset="1" stop-color="#3f287d"/></linearGradient><linearGradient id="linear-gradient-10" x1="-142.22" y1="312.16" x2="1111.81" y2="554.73" xlink:href="#linear-gradient-4"/><linearGradient id="linear-gradient-11" x1="157.07" y1="1036.23" x2="632.87" y2="1036.23" gradientUnits="userSpaceOnUse"><stop offset="0" stop-color="#e39c02"/><stop offset="1" stop-color="#d18432"/></linearGradient><linearGradient id="linear-gradient-12" x1="15.31" y1="388.32" x2="312.03" y2="741.11" gradientUnits="userSpaceOnUse"><stop offset="0" stop-color="#f5be85"/><stop offset="0.59" stop-color="#f9ce77"/><stop offset="1" stop-color="#fddc6b"/></linearGradient><linearGradient id="linear-gradient-13" x1="894.12" y1="519.52" x2="354.65" y2="1328.18" gradientUnits="userSpaceOnUse"><stop offset="0.14" stop-color="#fddc6b"/><stop offset="1" stop-color="#fff"/></linearGradient><linearGradient id="linear-gradient-14" x1="-3.2" y1="531.69" x2="170.84" y2="828" gradientUnits="userSpaceOnUse"><stop offset="0.12" stop-color="#f8af14"/><stop offset="1" stop-color="#e1820e"/></linearGradient><linearGradient id="linear-gradient-15" x1="1152.66" y1="772.87" x2="726.78" y2="1060.61" gradientUnits="userSpaceOnUse"><stop offset="0" stop-color="#f8af14"/><stop offset="0.14" stop-color="#f4a813"/><stop offset="1" stop-color="#e1820e"/></linearGradient><linearGradient id="linear-gradient-16" x1="236.91" y1="333.11" x2="351.32" y2="789.81" gradientUnits="userSpaceOnUse"><stop offset="0.26" stop-color="#f8af14"/><stop offset="0.93" stop-color="#f2aa00"/></linearGradient><linearGradient id="linear-gradient-17" x1="138.15" y1="753.64" x2="320.89" y2="1016.14" gradientUnits="userSpaceOnUse"><stop offset="0" stop-color="#f2aa00"/><stop offset="1" stop-color="#e39c02"/></linearGradient><linearGradient id="linear-gradient-18" x1="1059.5" y1="498.21" x2="612.3" y2="972.63" gradientUnits="userSpaceOnUse"><stop offset="0.14" stop-color="#f8af14"/><stop offset="0.84" stop-color="#f2aa00"/></linearGradient><linearGradient id="linear-gradient-19" x1="735" y1="1188.04" x2="429.5" y2="1021.83" gradientUnits="userSpaceOnUse"><stop offset="0" stop-color="#e39c02"/><stop offset="0.88" stop-color="#d18432"/></linearGradient><linearGradient id="linear-gradient-20" x1="834.52" y1="819.49" x2="563.08" y2="1110.53" gradientUnits="userSpaceOnUse"><stop offset="0.08" stop-color="#f2aa00"/><stop offset="0.43" stop-color="#f0a803"/><stop offset="0.64" stop-color="#eba20b"/><stop offset="0.82" stop-color="#e19719"/><stop offset="0.97" stop-color="#d4872e"/><stop offset="1" stop-color="#d18432"/></linearGradient><linearGradient id="linear-gradient-21" x1="795.41" y1="276.15" x2="1097.78" y2="635.66" gradientTransform="matrix(-0.83, -0.55, -0.55, 0.83, 1997.96, 941.7)" xlink:href="#linear-gradient-12"/><linearGradient id="linear-gradient-22" x1="932.9" y1="506.96" x2="402.22" y2="1302.44" gradientTransform="matrix(-0.83, -0.55, -0.55, 0.83, 1440.23, 467.42)" xlink:href="#linear-gradient-13"/></defs><title>Low poly logo</title><g id="Layer_2" data-name="Layer 2"><g id="Vectorial_shit" data-name="Vectorial shit"><ellipse class="cls-1" cx="610.92" cy="510.5" rx="507.09" ry="510.5"/></g><g id="Star"><g id="Stellina"><polygon points="608.24 523.58 607.53 524.61 608.25 524.37 608.25 523.59 608.24 523.58"/><polygon points="608.25 523.59 608.25 524.37 609.23 524.03 609.14 523.89 608.25 523.59"/><polygon points="609.23 524.03 609.39 523.98 609.14 523.89 609.23 524.03"/><polygon points="608.25 523.57 608.24 523.58 608.25 523.59 608.25 523.57"/><polygon class="cls-2" points="776.71 581.59 1052.5 372.41 609.39 523.98 776.71 581.59"/><polygon points="609.14 523.89 608.59 523.08 608.25 523.57 608.25 523.59 609.14 523.89"/><polygon class="cls-3" points="609.14 523.89 609.39 523.98 1052.5 372.41 712.76 371.08 608.59 523.08 609.14 523.89"/><polygon points="608.25 522.59 608.25 523.57 608.59 523.08 608.25 522.59"/><polygon class="cls-4" points="608.25 524.37 607.51 712.16 608.25 524.37 607.53 524.61 338.37 917.34 607.5 712.16 879.3 920 609.23 524.03 608.25 524.37"/><polygon class="cls-5" points="609.39 523.98 609.23 524.03 879.3 920 776.71 581.59 609.39 523.98"/><polygon class="cls-6" points="440.96 581.59 338.37 917.34 607.53 524.61 440.96 581.59"/><polygon class="cls-7" points="608.59 523.08 712.76 371.08 610.17 34.01 608.25 522.59 608.59 523.08"/><polygon class="cls-8" points="608.24 523.58 169.17 372.41 440.96 581.59 607.53 524.61 608.24 523.58"/><polygon class="cls-9" points="610.17 34.01 610.17 34 504.92 371.08 608.25 522.59 610.17 34.01"/><polygon class="cls-10" points="608.25 523.57 608.25 522.59 504.92 371.08 169.17 372.41 608.24 523.58 608.25 523.57"/></g></g><g id="Torre_e_terreno" data-name="Torre e terreno"><g id="Corona"><polygon class="cls-11" points="157.07 1045.9 436.37 1100.86 475.55 971.61 157.07 1045.9"/><polygon class="cls-12" points="207.47 646.96 101.6 460.5 0.32 365.07 207.44 647.18 207.47 646.96"/><polygon class="cls-13" points="207.69 647.51 207.72 647.26 207.47 646.96 207.44 647.18 207.69 647.51"/><polygon class="cls-13" points="155.67 1045.62 155.76 1045.64 155.7 1045.38 155.67 1045.62"/><polygon class="cls-14" points="617.76 765.36 475.55 971.61 1127.53 344.97 617.76 765.36"/><polygon class="cls-15" points="0.32 365.07 0.18 364.94 0.32 365.07 0 364.64 155.7 1045.38 207.44 647.18 0.32 365.07"/><polygon class="cls-16" points="873.64 841.55 873.52 841.61 694.77 1202.09 1208.75 716.64 873.64 841.55"/><polygon class="cls-17" points="287.03 102.5 207.72 647.26 475.55 971.61 287.03 102.5"/><polygon class="cls-18" points="207.72 647.26 207.69 647.51 207.44 647.18 155.7 1045.38 155.76 1045.64 157.07 1045.9 475.55 971.61 207.72 647.26"/><polygon class="cls-13" points="155.88 1046.17 157.07 1045.9 155.76 1045.64 155.88 1046.17"/><polygon class="cls-19" points="1127.53 344.97 475.55 971.61 873.53 841.59 1127.53 344.97"/><polygon class="cls-13" points="873.64 841.55 873.53 841.59 873.52 841.61 873.64 841.55"/><polygon class="cls-20" points="436.37 1100.86 694.77 1202.09 475.55 971.61 436.37 1100.86"/><polygon class="cls-21" points="873.27 841.75 873.52 841.61 873.53 841.59 475.55 971.61 694.77 1202.09 873.52 841.61 873.27 841.75"/><polygon class="cls-22" points="873.64 841.55 1065.08 744.97 1207.84 717 873.54 841.75 873.64 841.55"/><polygon class="cls-23" points="478.53 734.9 475.84 971 287.03 102.5 478.53 734.9"/></g></g></g></svg>