<svg xmlns="http://www.w3.org/2000/svg" viewBox="0 0 1660.66 1561.27"><defs><style>.cls-1{fill:#b17f4a;}.cls-1,.cls-2,.cls-3,.cls-4,.cls-5{stroke:#1d1d1b;}.cls-1,.cls-2,.cls-4,.cls-5{stroke-miterlimit:10;}.cls-1,.cls-10,.cls-2,.cls-3,.cls-4,.cls-5,.cls-6,.cls-7,.cls-8{stroke-width:7px;}.cls-10,.cls-2{fill:none;}.cls-3,.cls-5{fill:#ca9e67;}.cls-10,.cls-3,.cls-6,.cls-7,.cls-8{stroke-linecap:round;stroke-linejoin:round;}.cls-12,.cls-4,.cls-7{fill:#e6332a;}.cls-11,.cls-6{fill:#fff;}.cls-6,.cls-7{stroke:#fff;}.cls-8{fill:#008d36;}.cls-10,.cls-8{stroke:#063;}.cls-9{fill:#063;}</style></defs><g id="Livello_2" data-name="Livello 2"><g id="pizza"><path class="cls-1" d="M193.8,433.47s34.09-163.64,129.55-243.19,200-165.91,350-138.63c0,0,38.63-70.46,306.82-40.91s375,170.45,375,170.45S1521.08,301.65,1562,433.47s81.82,65.9,93.19,355.68-29.55,321.59-29.55,321.59-143.18,245.45-259.09,288.63-118.18,29.55-118.18,29.55-156.82,127.27-245.46,120.45-250,40.91-447.72-36.36-315.91-254.54-315.91-254.54L837,758.47Z"/><path class="cls-1" d="M171.08,447.1S66.12,621.91,39.26,713c-84.09,84.09-2.38,424.33,65.91,513.64L837,758.47Z"/><path class="cls-2" d="M326.25,500.39s163-91.92,160.73-182.83c0,0,234.1-18.19,236.37-79.55,0,0,47.73,84.09,231.82,0,0,0,90.91,77.27,225,50,0,0-38.64,125,120.45,195.46l45.46,16.92s-22.73,69.44,52.27,126.26c0,0-15.91,100,43.18,172.72,0,0-22.73,25-18.18,79.55,0,0-61.37,81.82-77.27,161.36s-61.37,22.73-68.19,115.91c0,0-84.09,84.09-68.18,120.46,0,0-197.73,18.18-225,86.36,0,0-129.54-47.73-140.91,11.36,0,0-54.54-68.18-145.45-18.18,0,0-81.82-122.72-206.82-125,0,0-28.67-121.7-68.81-126.19,0,0-35.05,46-77.48,84.34s-106,69.13-106,69.13"/><path class="cls-3" d="M174,513.44s35,50.64,162.93,6.53L170.13,447.1S162,500.76,174,513.44"/><path class="cls-4" d="M325.91,500.47s163-91.93,160.73-182.84c0,0,234.09-18.18,236.36-79.54,0,0,47.73,84.09,231.82,0,0,0,90.91,77.27,225,50,0,0-38.64,125,120.45,195.45l45.46,16.93S1323,569.91,1398,626.72c0,0-15.91,100,43.18,172.73,0,0-22.73,25-18.18,79.55,0,0-61.36,81.81-77.27,161.36s-61.37,22.73-68.18,115.91c0,0-84.1,84.09-68.19,120.45,0,0-197.72,18.19-225,86.37,0,0-129.54-47.73-140.91,11.36,0,0-54.54-68.18-145.45-18.18,0,0-81.82-122.73-206.82-125,0,0-28.67-121.71-68.81-126.2L836.3,758.65,325.91,500.47"/><path class="cls-4" d="M312.63,711.75c-24.24,24-69.59,90.68.95,204.25,66.16,53.41,66.16,135,66.16,135l452.9-290.64L336.89,520c-13.3,12-12.09,159.93-24.26,191.78"/><path class="cls-5" d="M109.78,1222.92l267.83-172.07c-59.57,19.65-122.16,33.46-155.27,53.75-4.22,2.59-8.48,5.09-12.85,7.4C182.49,1126.26,130.6,1170.54,109.78,1222.92Z"/><path class="cls-5" d="M250.52,1249.39,433.64,1096S355.55,1216.17,250.52,1249.39Z"/><path class="cls-3" d="M193.59,436.09s-.79,10.82,6.78,13.74l129.57,50.94s-14.36-51.43-40.48-62.1C265.48,428.87,195.69,406.18,193.59,436.09Z"/><path class="cls-1" d="M723,238.09s2.44-59.59-17.51-81.72"/><path class="cls-1" d="M1345.73,500.47s66.67-53.22,87.1-39.5"/><path class="cls-1" d="M1209.36,1276.72s31.11,38.9,60.05,37.2"/><path class="cls-1" d="M843.45,1374.45s-6.52,29.69-6.47,68.84"/><path class="cls-1" d="M491.18,1231.27s-32.05,63.92-49.07,75.84"/><path class="cls-1" d="M313.58,916s-131.92-42.15-174.48,0"/><path class="cls-1" d="M313.24,713.83s-129.88,59.25-157.12,19.85"/></g><g id="R"><path class="cls-6" d="M521,610.74s-62.46,62.63-32.57,101c25.79,33.09-6.53,58,7.61,68.89,33.32,25.55,1.62,49.55,4.54,75.55,4.87,43.33,20.42,79.55,20.42,79.55s27.31,15.91,43.22-27.27,0-127.83,0-127.83,13.63-23.29,43.18,0,48.36,93.74,48.36,93.74,18.36,40.66,22.9-14.65c5.79-70.58,17.38-92.17-53.08-126.26,0,0,53.18-54.08.91-81.35,0,0,26.36-14.11,3.64-41.38s-5.19-25.88,2.27-45.46c17.08-44.84-67.36-52.39-81.82,0A92.13,92.13,0,0,1,521,610.74Z"/><path class="cls-7" d="M564.26,710.74s-40.91,9.09-34.09-27.27,34.09-22.73,34.09-22.73,23.92-6,19.91,24.25S564.26,710.74,564.26,710.74Z"/><path class="cls-6" d="M665.71,887.89S625.62,921,648.35,938.6s6,44.87,34.82,44.87,90.18-13.76,67.45-47.79-69.79-98.81-69.79-98.81"/></g><g id="Y"><path class="cls-8" d="M664.83,599.65s49.6,201.47,167.81,160.7S795.8,578.66,664.83,599.65Z"/><path class="cls-8" d="M1013.09,579.7c-24.38,61.22-180.45,180.65-180.45,180.65S864.28,562,1013.09,579.7q-56.77,93.63-180.45,180.65s107.22,5.45,147.09-56.6c43.87-68.27,33.36-124,33.36-124"/><path class="cls-8" d="M836.3,758.65s-77.68,61.85-72.07,139.19,45.3,132.38,45.3,132.38,83.91-88.61,83.18-132.57C892.71,897.65,915.72,782.91,836.3,758.65Z"/><g id="Livello_7" data-name="Livello 7"><path class="cls-9" d="M790.1,862.53c6.16-14.88,30.47-23.61,45.13-27.35a2.28,2.28,0,0,1,.86,0A125.5,125.5,0,0,1,850,837.8c9.16,2.42,18.38,5.47,25.77,11.7,3.59,3.12,6.44,8,5,12.84.22-9.76-11.05-13.7-18.69-16.43a162.83,162.83,0,0,0-26.54-5.83l.86,0c-14.05,3.68-37.7,10.32-46.25,22.49Z"/><path class="cls-9" d="M705.49,652.45c12.55-2.25,25.31-2.61,38-2.45l-2.08,1.16A121.5,121.5,0,0,0,748,639.35c1.7-4,4.09-8.36,2.63-12.84,1.71,1.77,2,4.55,1.94,6.92-.2,4.88-1.83,9.5-3.74,13.91a64.4,64.4,0,0,1-3.26,6.41,2.34,2.34,0,0,1-2.08,1.15c-12.72.16-25.48-.2-38-2.45Z"/><path class="cls-9" d="M721.84,685a12.16,12.16,0,0,0,5.68,1.62c6,.45,12-.26,17.94-.85,8-.88,16-2,23.89-3.21l-1.24.61a171.67,171.67,0,0,0,13.7-13.94c3.31-4.14,9.92-11.23,7.08-16.77,3.79,4.11.72,10.44-1.46,14.64a71.41,71.41,0,0,1-8.94,12.4c-2.24,2.55-4.54,5-7,7.33a2.34,2.34,0,0,1-1.25.61c-10.7,1.84-40.62,5.62-48.35-2.44Z"/><path class="cls-9" d="M756,731.6c9.64,6.53,28.86-7.79,37.19-13.36,5.63-4.08,11.4-8.14,16.49-12.88,4.45-4.43,11-10.34,8.77-17.25a7.55,7.55,0,0,1,1.24,2.45c.81,2.76.06,5.74-1,8.3-3.57,7.59-9.72,13.44-16.14,18.58-7.81,6.21-16.08,11.77-25.52,15.37-6.5,2.32-15.76,4.73-21-1.21Z"/><path class="cls-9" d="M692.74,630.46c3.84-.05,7.44-1.56,11.06-2.66l10.81-3.58-.43.21a36.7,36.7,0,0,0,6.27-4.59c1.3-1.32,2.48-2.7,2.17-4.59a6.58,6.58,0,0,0-.78-1.93,4.8,4.8,0,0,1,1.85,1.41c3.39,5-3.05,11.2-7,13.87-6.29,2.62-17.88,5.74-24,1.86Z"/><path class="cls-9" d="M885,675.63c-6.17,11.09-.7,32.45,2.39,44.35l-1.52-1.63a218.14,218.14,0,0,0,22.58,6.81c6.16,1.22,17.62,4.37,22.09-1.37-1.58,4.13-6.57,5.26-10.5,5.72-8.23.71-16.36-.88-24.27-2.86-3.93-1-7.77-2.21-11.64-3.63a2.4,2.4,0,0,1-1.52-1.63c-3.39-12.56-7.3-35.45,2.39-45.76Z"/><path class="cls-9" d="M918.11,652.45c-3.49,11.13,2.73,22.43,9.57,30.89l-.7-.56a107.18,107.18,0,0,0,15.5,6.56c3.91,1.16,8,2.39,12,1.2a6.92,6.92,0,0,0,3.34-2.43c-.13.34-.26.69-.41,1-1.25,2.52-4,3.84-6.71,4.28-6.13.91-12.15-.71-17.84-2.68a71.62,71.62,0,0,1-8.24-3.56,2.45,2.45,0,0,1-.71-.56c-7.52-9.09-13.55-23.54-5.82-34.19Z"/><path class="cls-9" d="M957.84,622.15c-3.66,9-.16,16.31,7.39,21.66a82.08,82.08,0,0,0,8.83,7.71c2.82,2.05,6.75,4.19,9.48.93-1.24,5.13-7.8,4.15-11.33,2.34a37.4,37.4,0,0,1-10.14-7.19l.45.36c-8.94-5.67-13.37-17.85-4.68-25.81Z"/><path class="cls-9" d="M990.36,594.63c-.79,6.14.84,12,2.31,17.89l-1-1.28c2.43,1.43,5.26,3.39,8.11,3.59a3.06,3.06,0,0,0,2.49-1.51,3.5,3.5,0,0,1-.28,1.91c-2.46,4.3-9.41,2-12.85.18a2.16,2.16,0,0,1-1-1.28c-2.17-6.24-2.92-14.6,2.3-19.5Z"/><path class="cls-9" d="M805.81,986.32c-1.09-1.78.23-4.24,1.73-5.4,4-3.47,11.82-4.31,15.49-4,4.67-.56,11.61,2.32,10,8-1.68-4.11-6-3.85-9.69-3.26l-4.9.38c-3.46.55-11.82.12-12.66,4.29Z"/><path class="cls-9" d="M803.39,942.08c-.63-12.23,23.88-10.5,31.71-8.68l-.72,0A29.66,29.66,0,0,1,849.17,936c4.66,2.08,8.18,7.26,7.19,12.36-1.55-7.23-8.29-9.73-15-10.08-2.38-.26-4.92,0-7.25,0a125.54,125.54,0,0,0-16.76-1.8c-5.06.06-12.24-.28-14,5.63Z"/><path class="cls-9" d="M786.37,903.51c5.38-17.56,31-21,46.78-20.35,8.21-.78,21.55.13,30.29,5.12,5.58,3,10,8.72,9.94,15.23-1.94-8.06-9.21-12.46-16.84-14.13s-15.91-1.84-23.7-1.25c-15-.26-38.12.84-46.47,15.38Z"/><path class="cls-9" d="M807.35,816.55c3.18-9.22,16.59-14.25,25.33-16.55a2.28,2.28,0,0,1,.86,0,65.32,65.32,0,0,1,8,1.58c5.26,1.48,10.57,3.37,14.7,7.21,2,1.93,3.59,4.91,2.49,7.7-.36-7.1-12.7-8.91-18.28-10.26-2.48-.5-5-.94-7.48-1.27l.86,0a127.9,127.9,0,0,0-14,4.24c-4.55,1.8-9.17,3.61-12.46,7.45Z"/><path class="cls-10" d="M836.3,758.65s-3.24,234.13-26.77,271.57"/></g><path class="cls-10" d="M664.83,599.65c33.64,5.71,114.09,76,164.26,164.26"/></g><g id="G"><path class="cls-11" d="M1008.68,720.66a79,79,0,0,0,14.18-27.14c7.68-26,27.9-72,74.48-70.76,64.8,1.68,103.88-47.87,114.18-3.15,6.83,29.65,45.61,39.16,71,42.2a80.64,80.64,0,0,1,51.44,27.08c16.35,18.9,26.12,43.63-15.29,57.56-49.54,16.65-23.31,56.07-1.08,79.89a81.06,81.06,0,0,1,22,58.61c-1.36,32.89-10.72,72.39-49.76,58.62-55.48-19.57-109,5.27-122.2,12.21a83.32,83.32,0,0,1-8.67,3.92c-26,10-133.26,46.64-120-33,9.69-58.21-1.45-80-10.63-88.15a84.1,84.1,0,0,1-23-32.25C995.76,781.93,988,746.34,1008.68,720.66Z"/><path class="cls-12" d="M1321.89,751.26s-61.53-57.52-82.45-33.47c-8.93,10.26-78.65-21.38-96.42-5.35,0,0-87.59,64.69-27.55,93.75,40.14,19.19,42.56,63.91,77.1,64.95a29.59,29.59,0,0,0,17.16-5.4c13.74-9.13,82.06-6.53,74.78-47.78-7-39.82,31.36-11.77,37.38-37.32"/></g><g id="Mozzarella"><path class="cls-6" d="M296.68,744.64s38.17,124,83.67,87.34,6.88-71.24,6.88-71.24S414,735.42,402.52,702.6s25.26-42.28,25.26-42.28-3.86-36.9-30.9-31.11S339,683.75,339,683.75s-7,37.46-25.71,30.08Z"/><path class="cls-6" d="M506.09,324.48s19.32,10.14,23.31,31.38-29.35,0-23.31,38.62S557,455.84,557,455.84s67.14,14.78,59.41-13.64-19.83-64.08.62-74.75c39.74-20.76-10.22-61.73-32.41-54.1Z"/><path class="cls-6" d="M763.94,371.27s-45.17-57-51-8.7-42.49,106.21,0,106.21,42.59,60,42.59,60,100.24,30.78,84.82-44.53,34.32-67.59,34.32-67.59,29.45-32.81-11.11-45.37-61.21,14.47-61.21,14.47S762.77,407,763.94,371.27Z"/><path class="cls-6" d="M1058.64,302.7c-44.45-11.11-92.69-9.65-94.62,30.9s11.51,116.69,50.17,99.87,3.9,64.28,30.94,62.35,24.28,14.41,25.1,39.17c1.25,37.86,99.52,33.33,86.9,18.76,0,0,56-32.83,25.11-79.18,34.75-13.51,9.29-50.21,9.29-50.21-40.19-53.09,2.29-106.21-63.37-96.55S1103.1,313.82,1058.64,302.7Z"/><path class="cls-6" d="M643.29,1179.67s-85.06,48.28-112-19.31-24-116.52-24-116.52,53.13-66.94,105.27-18.66,87.84,0,87.84,0,95.27-7.72,71.3,34.76-18.22,131.32-71.3,117.8S643.29,1179.67,643.29,1179.67Z"/><path class="cls-6" d="M1014.19,1160.11s-84.55-73.38-129.15-29-90.82,82.85-55.16,95.5,59.8,57,44.83,80.23,90.88,59.86,89.13,29S995.61,1276,995.61,1276s61.1-17.88,32.14-43.7S1014.19,1160.11,1014.19,1160.11Z"/><path class="cls-6" d="M1218.93,1030.22s-75.32-38.11-90.77-11.08-46.21,52-63.72,34.76c-46.27-45.56-100.6-88.83-119.73-5.79-6.25,27.13,69.48,11.59,83,83,4.69,24.73,77.24,57.26,91.83,15.45,17.87-51.22,105.14,6.2,126.38-29.73S1218.93,1030.22,1218.93,1030.22Z"/><path class="cls-6" d="M441.34,1011.58s3.44,33.86,18.65,18.66,55.56-5.25,45.28-29.12,5.13-34.92-24.9-62.52-4.92-42.78-53.2-28.43-29,51-29,51Z"/></g></g></svg>