<svg version="1.1" viewBox="0.0 0.0 720.0 720.0" fill="none" stroke="none" stroke-linecap="square" stroke-miterlimit="10" xmlns:xlink="http://www.w3.org/1999/xlink" xmlns="http://www.w3.org/2000/svg"><clipPath id="p.0"><path d="m0 0l720.0 0l0 720.0l-720.0 0l0 -720.0z" clip-rule="nonzero"/></clipPath><g clip-path="url(#p.0)"><path fill="#ff7f00" d="m0 0l720.0 0l0 720.0l-720.0 0z" fill-rule="evenodd"/><path fill="#ffff00" d="m59.567043 284.42978l229.50504 0.0014953613l70.919525 -210.762l70.919495 210.762l229.50504 -0.0014953613l-185.67438 130.25656l70.922424 210.76105l-185.67258 -130.25897l-185.67259 130.25897l70.92241 -210.76105z" fill-rule="evenodd"/><path fill="#fff2cc" d="m90.00521 402.06305l-90.0 -40.6763q56.0322 -4.968384 112.0644 -8.390167l0 -16.40625q247.93561 -15.14093 495.8712 0l0 16.40625q56.032227 3.4217834 112.06439 8.390167l-90.0 40.6763l90.0 54.641876q-101.032166 -8.958557 -202.06439 -12.888763l90.0 -11.907654q-247.93558 -15.140961 -495.8712 0l90.0 11.907654q-101.0322 3.9302063 -202.0644 12.888763z" fill-rule="evenodd"/><path fill="#cbc1a3" d="m202.06961 427.4099l0 16.40625l-90.0 -11.907654q247.93561 -15.140961 495.8712 0l-90.0 11.907654l0 -16.40625q-157.93558 -6.1437683 -315.8712 0z" fill-rule="evenodd"/><path fill="#000000" fill-opacity="0.0" d="m0.005209974 456.70493l90.0 -54.641876l-90.0 -40.6763q56.0322 -4.968384 112.0644 -8.390167l0 -16.40625q247.93561 -15.14093 495.8712 0l0 16.40625q56.032227 3.4217834 112.06439 8.390167l-90.0 40.6763l90.0 54.641876q-101.032166 -8.958557 -202.06439 -12.888763l90.0 -11.907654q-247.93558 -15.140961 -495.8712 0l90.0 11.907654q-101.0322 3.9302063 -202.0644 12.888763zm112.0644 -24.796417l0 -78.91193m495.8712 0l0 78.91193m-405.8712 -4.498596l0 16.40625m315.8712 0l0 -16.40625" fill-rule="evenodd"/><path fill="#000000" fill-opacity="0.0" d="m200.59637 322.84665l318.80316 0l0 140.0315l-318.80316 0z" fill-rule="evenodd"/><path fill="#783f04" d="m304.37296 408.64667l-10.03125 0l-19.453125 -23.125l-10.90625 0l0 23.125l-7.734375 0l0 -58.171875l16.296875 0q5.265625 0 8.78125 0.6875q3.515625 0.6875 6.328125 2.4375q3.171875 2.0 4.9375 5.03125q1.78125 3.015625 1.78125 7.671875q0 6.28125 -3.171875 10.53125q-3.15625 4.234375 -8.703125 6.375l21.875 25.4375zm-18.078125 -41.796875q0 -2.5 -0.890625 -4.4375q-0.875 -1.9375 -2.90625 -3.265625q-1.671875 -1.125 -3.984375 -1.578125q-2.296875 -0.453125 -5.421875 -0.453125l-9.109375 0l0 21.953125l7.8125 0q3.671875 0 6.40625 -0.640625q2.734375 -0.640625 4.65625 -2.40625q1.75 -1.640625 2.59375 -3.765625q0.84375 -2.125 0.84375 -5.40625zm94.875 -16.375l-20.46875 32.65625l0 25.515625l-7.734375 0l0 -24.6875l-20.546875 -33.484375l8.5625 0l15.890625 26.015625l16.0625 -26.015625l8.234375 0zm84.6875 53.875q-4.765625 2.1875 -10.40625 3.8125q-5.640625 1.625 -10.921875 1.625q-6.796875 0 -12.46875 -1.875q-5.65625 -1.890625 -9.640625 -5.640625q-4.015625 -3.78125 -6.203125 -9.46875q-2.1875 -5.6875 -2.1875 -13.296875q0 -13.953125 8.140625 -22.015625q8.140625 -8.0625 22.359375 -8.0625q4.96875 0 10.140625 1.1875q5.171875 1.1875 11.15625 4.046875l0 9.171875l-0.703125 0q-1.21875 -0.9375 -3.53125 -2.453125q-2.296875 -1.53125 -4.515625 -2.546875q-2.703125 -1.203125 -6.125 -2.0q-3.40625 -0.8125 -7.75 -0.8125q-9.765625 0 -15.453125 6.28125q-5.671875 6.265625 -5.671875 16.96875q0 11.28125 5.9375 17.5625q5.9375 6.265625 16.171875 6.265625q3.75 0 7.46875 -0.734375q3.734375 -0.75 6.546875 -1.921875l0 -14.265625l-15.578125 0l0 -6.796875l23.234375 0l0 24.96875z" fill-rule="nonzero"/></g></svg>