<?xml version="1.0" encoding="UTF-8" standalone="no"?>
<!-- Created with Inkscape (http://www.inkscape.org/) -->

<svg
   width="1000"
   height="1000"
   viewBox="0 0 264.58332 264.58333"
   version="1.1"
   id="svg8"
   inkscape:version="1.1 (c4e8f9ed74, 2021-05-24)"
   sodipodi:docname="logo.svg"
   inkscape:export-filename="/mnt/tera/ext4/pictures/ryg/5-blue-star/watermelon/logo.png"
   inkscape:export-xdpi="96"
   inkscape:export-ydpi="96"
   xmlns:inkscape="http://www.inkscape.org/namespaces/inkscape"
   xmlns:sodipodi="http://sodipodi.sourceforge.net/DTD/sodipodi-0.dtd"
   xmlns:xlink="http://www.w3.org/1999/xlink"
   xmlns="http://www.w3.org/2000/svg"
   xmlns:svg="http://www.w3.org/2000/svg"
   xmlns:rdf="http://www.w3.org/1999/02/22-rdf-syntax-ns#"
   xmlns:cc="http://creativecommons.org/ns#"
   xmlns:dc="http://purl.org/dc/elements/1.1/">
  <title
     id="title5190">Royal Games</title>
  <defs
     id="defs2">
    <linearGradient
       id="External"
       inkscape:swatch="solid">
      <stop
         style="stop-color:#223c27;stop-opacity:1;"
         offset="0"
         id="stop5957" />
    </linearGradient>
    <linearGradient
       id="Seed"
       inkscape:swatch="solid">
      <stop
         style="stop-color:#370600;stop-opacity:1;"
         offset="0"
         id="stop5791" />
    </linearGradient>
    <linearGradient
       inkscape:collect="always"
       id="linearGradient3921">
      <stop
         style="stop-color:#dc2e35;stop-opacity:1"
         offset="0"
         id="stop3917" />
      <stop
         style="stop-color:#dc2e35;stop-opacity:1"
         offset="0.91117996"
         id="stop4921" />
      <stop
         style="stop-color:#eceeba;stop-opacity:1"
         offset="0.93067944"
         id="stop4727" />
      <stop
         style="stop-color:#7ed41b;stop-opacity:1"
         offset="1"
         id="stop3919" />
    </linearGradient>
    <linearGradient
       id="Outer"
       inkscape:swatch="solid">
      <stop
         style="stop-color:#7ed41b;stop-opacity:1;"
         offset="0"
         id="stop1342" />
    </linearGradient>
    <linearGradient
       id="Inner"
       inkscape:swatch="solid"
       gradientTransform="matrix(0.86156343,0,0,0.86156343,19.440243,22.546689)">
      <stop
         style="stop-color:#dc2e35;stop-opacity:1;"
         offset="0"
         id="stop1010" />
    </linearGradient>
    <linearGradient
       id="linearGradient5149">
      <stop
         style="stop-color:#000000;stop-opacity:1;"
         offset="0"
         id="stop5147" />
    </linearGradient>
    <linearGradient
       id="linearGradient5042">
      <stop
         style="stop-color:#000000;stop-opacity:1;"
         offset="0"
         id="stop5040" />
    </linearGradient>
    <linearGradient
       id="linearGradient4971">
      <stop
         style="stop-color:#000000;stop-opacity:1;"
         offset="0"
         id="stop4969" />
    </linearGradient>
    <linearGradient
       id="Principale"
       gradientTransform="matrix(0.74229154,0,0,0.74229154,36.189245,41.972092)"
       inkscape:swatch="solid">
      <stop
         style="stop-color:#a0ccff;stop-opacity:1;"
         offset="0"
         id="stop4895" />
    </linearGradient>
    <linearGradient
       id="Sfondo"
       inkscape:swatch="solid">
      <stop
         style="stop-color:#0d193c;stop-opacity:1;"
         offset="0"
         id="stop817" />
    </linearGradient>
    <clipPath
       clipPathUnits="userSpaceOnUse"
       id="clipPath5457">
      <use
         x="0"
         y="0"
         xlink:href="#g5453"
         id="use5459"
         width="100%"
         height="100%" />
    </clipPath>
    <radialGradient
       inkscape:collect="always"
       xlink:href="#linearGradient3921"
       id="radialGradient3923"
       cx="132.29167"
       cy="164.70833"
       fx="132.29167"
       fy="164.70833"
       r="132.29167"
       gradientUnits="userSpaceOnUse" />
    <linearGradient
       inkscape:collect="always"
       xlink:href="#Seed"
       id="linearGradient5795"
       x1="67.407462"
       y1="162.86656"
       x2="215.82284"
       y2="162.86656"
       gradientUnits="userSpaceOnUse" />
    <linearGradient
       inkscape:collect="always"
       xlink:href="#Seed"
       id="linearGradient5797"
       x1="65.031257"
       y1="127.9805"
       x2="93.991415"
       y2="127.9805"
       gradientUnits="userSpaceOnUse" />
    <linearGradient
       inkscape:collect="always"
       xlink:href="#Seed"
       id="linearGradient5799"
       x1="65.031307"
       y1="176.54817"
       x2="107.76071"
       y2="176.54817"
       gradientUnits="userSpaceOnUse" />
    <linearGradient
       inkscape:collect="always"
       xlink:href="#Seed"
       id="linearGradient5801"
       x1="83.515764"
       y1="213.38811"
       x2="117.76839"
       y2="213.38811"
       gradientUnits="userSpaceOnUse" />
    <linearGradient
       inkscape:collect="always"
       xlink:href="#External"
       id="linearGradient5961"
       x1="0"
       y1="164.70833"
       x2="264.58334"
       y2="164.70833"
       gradientUnits="userSpaceOnUse" />
  </defs>
  <sodipodi:namedview
     id="base"
     pagecolor="#ffffff"
     bordercolor="#666666"
     borderopacity="1.0"
     inkscape:pageopacity="0.0"
     inkscape:pageshadow="2"
     inkscape:zoom="0.64"
     inkscape:cx="401.5625"
     inkscape:cy="478.90625"
     inkscape:document-units="px"
     inkscape:current-layer="main-layer"
     showgrid="false"
     units="px"
     inkscape:pagecheckerboard="true"
     inkscape:measure-start="384.018,406.607"
     inkscape:measure-end="388.429,418.649"
     showguides="true"
     inkscape:object-paths="true"
     inkscape:snap-intersection-paths="true"
     inkscape:snap-smooth-nodes="true"
     inkscape:snap-midpoints="false"
     inkscape:snap-bbox="false"
     inkscape:bbox-paths="true"
     inkscape:bbox-nodes="true"
     inkscape:snap-bbox-edge-midpoints="true"
     inkscape:snap-bbox-midpoints="true"
     inkscape:snap-nodes="true"
     inkscape:snap-grids="false"
     inkscape:snap-others="false"
     inkscape:guide-bbox="true"
     inkscape:window-width="1920"
     inkscape:window-height="1019"
     inkscape:window-x="1280"
     inkscape:window-y="32"
     inkscape:window-maximized="1"
     inkscape:snap-page="false"
     fit-margin-top="0"
     fit-margin-left="0"
     fit-margin-right="0"
     fit-margin-bottom="0">
    <inkscape:grid
       type="xygrid"
       id="grid1186"
       originx="0"
       originy="1.5e-005" />
  </sodipodi:namedview>
  <metadata
     id="metadata5">
    <rdf:RDF>
      <cc:Work
         rdf:about="">
        <dc:format>image/svg+xml</dc:format>
        <dc:type
           rdf:resource="http://purl.org/dc/dcmitype/StillImage" />
        <dc:title>Royal Games</dc:title>
      </cc:Work>
    </rdf:RDF>
  </metadata>
  <g
     inkscape:label="Main Layer"
     inkscape:groupmode="layer"
     id="main-layer"
     transform="translate(0,-32.416689)"
     style="display:inline">
    <rect
       style="fill-opacity:1.0;stroke-width:0.53132677;fill:url(#linearGradient5961)"
       id="background"
       width="264.58334"
       height="264.58334"
       x="0"
       y="32.416656" />
    <circle
       style="stroke-width:12.6999996;fill-opacity:1;stroke:none;stroke-opacity:1;stroke-miterlimit:4;stroke-dasharray:none;fill:url(#radialGradient3923)"
       id="path928"
       cx="132.29167"
       cy="164.70833"
       r="132.29167" />
    <g
       id="logo"
       transform="matrix(0.88827897,0,0,0.88827923,7.5532469,20.037367)">
      <path
         inkscape:connector-curvature="0"
         id="star"
         d="m 67.407462,63.470922 20.426488,58.800008 4.551983,-6.82797 4.559106,6.83866 4.559111,-6.83866 v 23.93531 c 0,0 -3.412494,0.31766 -7.512735,0.61797 l 31.026855,89.31395 90.80457,32.95201 -60.30798,-75.95809 56.88242,-75.08679 -89.34022,31.61144 z"
         style="display:inline;opacity:0.99;fill:url(#linearGradient5795);fill-opacity:1;stroke-width:0.288526" />
      <path
         inkscape:connector-curvature="0"
         id="crown"
         d="m 93.991415,139.99624 -6.157465,-17.72531 -0.0072,0.0107 -4.559106,-6.83867 -4.559106,6.83867 -4.559068,-6.83866 -4.559107,6.83866 -4.559106,-6.83866 v 23.93531 c 0,0 12.145756,1.13977 18.236425,1.13977 2.870542,0 7.06859,-0.2541 10.723696,-0.5218 z"
         style="display:inline;opacity:1;fill:url(#linearGradient5797);fill-opacity:1;stroke-width:0.288526" />
      <path
         d="m 81.909707,177.4203 2.922923,8.4124 q 0.846109,2.43516 1.356969,2.97717 0.525303,0.51218 1.408753,0.62699 0.883451,0.11482 2.942275,-0.60053 l 0.284601,0.81911 -15.363697,5.33817 -0.284601,-0.81909 q 2.080961,-0.72304 2.68075,-1.35322 0.614235,-0.66001 0.686652,-1.37987 0.09456,-0.72755 -0.751551,-3.16271 l -6.768877,-19.48135 q -0.846108,-2.43516 -1.371412,-2.94734 -0.51086,-0.54201 -1.39431,-0.65682 -0.88345,-0.11482 -2.942274,0.60053 l -0.284601,-0.81911 13.946871,-4.84589 q 5.445922,-1.89221 8.231166,-2.01641 2.785246,-0.12418 5.086829,1.35869 2.293893,1.46074 3.239996,4.18369 1.153786,3.32068 -0.4833,6.32092 -1.050616,1.9033 -3.557267,3.54336 l 10.747538,7.65373 q 2.10141,1.478 2.86835,1.75735 1.1461,0.37091 2.36462,0.022 l 0.2846,0.81911 -9.452875,3.28444 -14.427855,-10.31986 z m -5.115116,-14.7217 4.568989,13.1499 1.261859,-0.43844 q 3.077167,-1.06917 4.412386,-2.15335 1.327525,-1.10634 1.683238,-2.86742 0.370156,-1.79092 -0.452876,-4.15967 -1.192246,-3.43137 -3.377514,-4.50807 -2.163127,-1.08438 -5.727328,0.15401 z"
         style="font-style:normal;font-variant:normal;font-weight:bold;font-stretch:normal;font-size:medium;line-height:1.25;font-family:'Times New Roman';-inkscape-font-specification:'Times New Roman, Bold';letter-spacing:0px;word-spacing:0px;fill:url(#linearGradient5799);fill-opacity:1;stroke:none;stroke-width:1.19993"
         id="letter-r"
         inkscape:connector-curvature="0" />
      <path
         d="m 132.03098,141.1918 0.28874,0.83103 q -1.43465,0.72499 -2.00912,1.67982 -0.79526,1.33356 -1.76168,6.37661 l -2.77165,13.3227 2.55976,7.3672 q 0.81943,2.35838 1.26922,2.8566 0.44198,0.47573 1.317,0.67513 0.8895,0.16929 2.10239,-0.25212 l 1.70706,-0.59313 0.28875,0.83104 -17.09277,5.93895 -0.28875,-0.83104 1.59471,-0.55408 q 1.34766,-0.46825 1.96993,-1.21309 0.47464,-0.51759 0.54627,-1.3981 0.0596,-0.62482 -0.73644,-2.91584 l -2.12273,-6.10937 -11.69925,-10.56027 q -3.47612,-3.1219 -4.58621,-3.49132 -1.11792,-0.39193 -2.58565,0.0928 l -0.288754,-0.83104 14.599604,-5.07269 0.28875,0.83103 -0.6514,0.22634 q -1.32519,0.46044 -1.73165,1.02935 -0.38387,0.56156 -0.23566,0.98812 0.28095,0.80857 3.20946,3.44106 l 9.00696,8.17294 2.28857,-11.09069 q 0.87333,-4.07934 0.49092,-5.17995 -0.2107,-0.60641 -0.93517,-0.80781 -0.95877,-0.29618 -3.04176,0.30169 l -0.28875,-0.83104 z"
         style="font-style:normal;font-variant:normal;font-weight:bold;font-stretch:normal;font-size:medium;line-height:1.25;font-family:'Times New Roman';-inkscape-font-specification:'Times New Roman, Bold';letter-spacing:0px;word-spacing:0px;fill:url(#Inner);fill-opacity:1;stroke:none;stroke-width:1.21744"
         id="letter-y"
         inkscape:connector-curvature="0" />
      <path
         d="m 107.8753,195.2258 3.60265,10.36871 -0.80259,0.27887 q -2.9306,-3.74663 -6.60607,-4.94925 -3.67548,-1.20263 -7.124484,-0.004 -3.297164,1.14561 -4.839868,3.77234 -1.550237,2.60505 -1.308144,6.24045 0.242091,3.63541 1.455537,7.1278 1.469701,4.2299 3.575457,7.07192 2.105752,2.84199 4.838372,3.56997 2.75431,0.72043 5.81286,-0.34227 1.06291,-0.36931 2.09382,-0.97061 1.04507,-0.63054 2.06569,-1.47137 l -2.12541,-6.1171 q -0.60295,-1.73536 -1.01492,-2.15136 -0.41949,-0.4377 -1.32191,-0.58605 -0.88072,-0.15589 -1.94362,0.21342 l -0.75922,0.26379 -0.27887,-0.80259 14.29494,-4.96684 0.27887,0.8026 q -1.58921,0.67372 -2.11938,1.24691 -0.516,0.54394 -0.59174,1.44544 -0.052,0.47998 0.5057,2.08517 l 2.12542,6.1171 q -2.3828,2.23793 -5.22278,3.92971 -2.81076,1.70593 -6.08623,2.84401 -4.18653,1.45462 -7.355006,1.29137 -3.154324,-0.19248 -5.920768,-1.29767 -2.752285,-1.13442 -4.751791,-3.04091 -2.558526,-2.46589 -3.847341,-6.17521 -2.306301,-6.63771 0.767158,-12.83513 3.073459,-6.19742 10.145006,-8.65446 2.190878,-0.76123 4.06851,-1.02465 1.014742,-0.15809 3.426942,-0.0725 2.42636,0.0564 2.81681,-0.0792 0.60738,-0.21103 0.97724,-0.82575 0.36233,-0.63642 0.36656,-2.02359 z"
         style="font-style:normal;font-variant:normal;font-weight:bold;font-stretch:normal;font-size:medium;line-height:1.25;font-family:'times new roman';-inkscape-font-specification:'times new roman, Bold';letter-spacing:0px;word-spacing:0px;fill:url(#linearGradient5801);fill-opacity:1;stroke:none;stroke-width:1.17575"
         id="letter-g"
         inkscape:connector-curvature="0" />
    </g>
  </g>
</svg>
