<?xml version="1.0" standalone="no"?>
<!DOCTYPE svg PUBLIC "-//W3C//DTD SVG 20010904//EN" "http://www.w3.org/TR/2001/REC-SVG-20010904/DTD/svg10.dtd">
<!-- Created using Krita: http://krita.org -->
<svg xmlns="http://www.w3.org/2000/svg" 
    xmlns:xlink="http://www.w3.org/1999/xlink"
    xmlns:krita="http://krita.org/namespaces/svg/krita"
    xmlns:sodipodi="http://sodipodi.sourceforge.net/DTD/sodipodi-0.dtd"
    width="205.714pt"
    height="205.714pt"
    viewBox="0 0 205.714 205.714">
<defs/>
<circle id="shape0" transform="matrix(0.999999978044268 0 0 0.999999978044268 17.4857161601065 17.2800018749256)" r="85.3714285714286" cx="85.3714285714286" cy="85.3714285714286" fill="#222034" fill-rule="evenodd" stroke="#000000" stroke-opacity="0" stroke-width="0" stroke-linecap="square" stroke-linejoin="bevel"/><path id="shape1" transform="matrix(0.999999978044268 0 0 0.999999978044268 28.3885698858371 28.3553593221441)" fill="none" stroke="#19fff2" stroke-width="12.6685714285714" stroke-linecap="square" stroke-linejoin="bevel" d="M148.32 74.16C148.32 33.2026 115.117 2.50784e-15 74.16 0C33.2026 -2.50784e-15 5.01567e-15 33.2026 0 74.16C-5.01567e-15 115.117 33.2026 148.32 74.16 148.32C115.117 148.32 148.32 115.117 148.32 74.16Z"/><path id="shape2" transform="matrix(0.999999978044268 0 0 0.999999978044268 53.2799986297094 53.6914271905566)" fill="none" stroke="#ff21c4" stroke-width="13.1657142857143" stroke-linecap="square" stroke-linejoin="bevel" d="M98.7429 49.1657C98.7429 21.7282 77.0146 1.77636e-15 49.5771 0C22.1396 -1.77636e-15 3.33067e-15 21.7282 0 49.1657C-3.33067e-15 76.6032 22.1396 98.7429 49.5771 98.7429C77.0146 98.7429 98.7429 76.6032 98.7429 49.1657Z"/><path id="shape3" transform="matrix(0.999999978044268 0 0 0.999999978044268 58.3302459651789 77.0948388068449)" fill="#222034" fill-rule="evenodd" stroke="#222034" stroke-width="13.1657142857143" stroke-linecap="square" stroke-linejoin="bevel" d="M0 0C38.9353 32.4865 0.0121222 0.00606129 39.8566 32.5835C48.7237 36.6534 51.486 22.7402 61.2395 25.7623C93.1032 54.3857 87.0755 49.5435 93.4869 54.6652"/><path id="shape4" transform="matrix(0.999999978044268 0 0 0.999999978044268 69.8217408061991 69.8217408061991)" fill="none" stroke="#ff21c4" stroke-width="13.1657142857143" stroke-linecap="square" stroke-linejoin="bevel" d="M0 0L66.0397 65.7488"/><path id="shape5" transform="matrix(0.999999978044268 0 0 0.999999978044268 92.3657150533366 41.5542860618733)" fill="#222034" fill-rule="evenodd" stroke="#222034" stroke-width="8.22857142857143" stroke-linecap="square" stroke-linejoin="bevel" d="M0 0L4.00646e-06 140.091M4.00646e-06 140.091C7.05579 140.205 14.4414 139.207 21.4971 139.32M21.1886 139.731L21.0857 0.411429"/><path id="shape6" transform="matrix(0.999999978044268 0 0 0.999999978044268 85.9885717711548 42.7885716003966)" fill="#222034" stroke="#222034" stroke-width="6.58285714285714" stroke-linecap="square" stroke-linejoin="bevel" d="M0 0L0.411429 137.417"/><path id="shape7" transform="matrix(0.999999978044268 0 0 0.999999978044268 119.21142917532 42.5828573138627)" fill="#222034" stroke="#222034" stroke-width="6.58285714285714" stroke-linecap="square" stroke-linejoin="bevel" d="M0.308571 0L0 136.903"/><path id="shape8" transform="matrix(0.999999978044268 0 0 0.999999978044268 102.857142857143 29.7256444627985)" fill="none" stroke="#19fff2" stroke-width="13.1371428571429" stroke-linecap="square" stroke-linejoin="bevel" d="M0 0L0 146.263"/>
</svg>
